<?xml version="1.0" encoding="utf-8"?>
<!-- Generator: Adobe Illustrator 23.0.3, SVG Export Plug-In . SVG Version: 6.00 Build 0)  -->
<svg version="1.1" id="Layer_1" xmlns="http://www.w3.org/2000/svg" xmlns:xlink="http://www.w3.org/1999/xlink" x="0px" y="0px"
	 viewBox="0 0 841.9 595.3" style="enable-background:new 0 0 841.9 595.3;" xml:space="preserve">
<style type="text/css">
	.st0{fill:#231F20;}
	.st1{fill:#E52C25;}
	.st2{fill:#221F1F;}
	.st3{font-family:'Modern-Regular';}
	.st4{font-size:20px;}
	.st5{fill:none;stroke:#0D0D0D;stroke-miterlimit:10;}
</style>
<g>
	<g>
		<path class="st0" d="M391.5,279.6c-1.6,0-3.2,0-4.7,0.1c10.2,0.3,19.7,1.4,26.1,2.7V415c-4.8,0.7-12,1.3-21.2,1.5
			c1.5,0.1,3,0.1,4.6,0.1c12,0,21.2-0.8,27-1.6V282.4C415.7,280.8,403.7,279.6,391.5,279.6z"/>
	</g>
	<g>
		<path class="st1" d="M395.5,402.2c-2.1,0.4-4.7,0.6-7.9,0.7c1.2,0.1,2.5,0.1,3.7,0.1c6.2,0,11.2-0.2,14.6-0.8v-51.4h-10.4V402.2z
			 M390.5,293c-1.5,0-2.9,0-4.3,0.1c4.4,0.2,7.3,0.6,9.3,1.1v43.4h10.4v-43.4C403.1,293.6,398.5,293,390.5,293z"/>
		<path class="st0" d="M391.7,416.5c-1.9,0.1-3.8,0.1-5.8,0.1c-22,0-37.2-4-46.6-12.6c-6.8-6.6-11.4-15.4-11.4-27
			c0-20,15-30.6,27.8-33.8v-0.4c-14.2-5.2-22.8-16.6-22.8-29.6c0-10.6,4.2-18.6,11.2-23.8c8.4-6.8,19.6-9.8,37-9.8
			c1.9,0,3.8,0,5.6,0.1c-14.7,0.5-24.6,3.6-32.2,9.7c-7,5.2-11.2,13.2-11.2,23.8c0,13,8.6,24.4,22.8,29.6v0.4
			c-12.8,3.2-27.8,13.8-27.8,33.8c0,11.6,4.6,20.4,11.4,27C358.4,412,372.1,416,391.7,416.5z"/>
	</g>
</g>
<g>
	<g>
		<path class="st1" d="M506.7,371.6l-8.4,0.1l15,42l8.4-0.1L506.7,371.6z M489,319.5c-3.1-8.8-5.3-16.7-7.4-24.5h-0.4
			c-1.2,5-2.4,10.1-3.8,15.2c0.9,3,1.9,6.1,3.1,9.3l13.8,38.6l-32.1,0.5l0,0.1l40.6-0.6L489,319.5z"/>
	</g>
	<g>
		<path class="st2" d="M492.2,279.4l-8.4,0.1l48.1,133.9l-10.2,0.2l0,0.1l18.6-0.3L492.2,279.4z M498.2,371.6l-47.8,0.8L437.1,415
			l-9.5,0.1l0,0.1l18-0.3l13.3-42.6l39.4-0.6L498.2,371.6z"/>
	</g>
</g>
<text transform="matrix(1 0 0 1 380.4647 451.7595)" class="st3 st4">Blake Allred</text>
<line class="st5" x1="376.1" y1="446.9" x2="327.9" y2="446.9"/>
<line class="st5" x1="489.2" y1="446.9" x2="540.3" y2="446.9"/>
</svg>
