<svg id="main" xmlns="http://www.w3.org/2000/svg" viewBox="0 0 212.4 176.54"><defs><style>.cls-1{fill:#231f20;}.cls-2{fill:#e52c25;}.cls-3{fill:#221f1f;}.cls-4{isolation:isolate;font-size:20px;font-family:Modern-Regular, "Modern No. 20";}.cls-5{fill:none;stroke:#0d0d0d;stroke-miterlimit:10;}</style></defs><title>logored2</title><g id="B"><path class="cls-1" d="M391.5,279.6c-1.6,0-3.2,0-4.7.1a164.06,164.06,0,0,1,26.1,2.7V415a181.81,181.81,0,0,1-21.2,1.5c1.5.1,3,.1,4.6.1a203.41,203.41,0,0,0,27-1.6V282.4C415.7,280.8,403.7,279.6,391.5,279.6Z" transform="translate(-327.9 -279.4)"/><path class="cls-2" d="M395.5,402.2a52.49,52.49,0,0,1-7.9.7c1.2.1,2.5.1,3.7.1a93,93,0,0,0,14.6-.8V350.8H395.5v51.4Zm-5-109.2c-1.5,0-2.9,0-4.3.1a48.75,48.75,0,0,1,9.3,1.1v43.4h10.4V294.2C403.1,293.6,398.5,293,390.5,293Z" transform="translate(-327.9 -279.4)"/><path class="cls-1" d="M391.7,416.5c-1.9.1-3.8.1-5.8.1-22,0-37.2-4-46.6-12.6a36.34,36.34,0,0,1-11.4-27c0-20,15-30.6,27.8-33.8v-.4c-14.2-5.2-22.8-16.6-22.8-29.6,0-10.6,4.2-18.6,11.2-23.8,8.4-6.8,19.6-9.8,37-9.8,1.9,0,3.8,0,5.6.1-14.7.5-24.6,3.6-32.2,9.7-7,5.2-11.2,13.2-11.2,23.8,0,13,8.6,24.4,22.8,29.6v.4c-12.8,3.2-27.8,13.8-27.8,33.8a36.34,36.34,0,0,0,11.4,27C358.4,412,372.1,416,391.7,416.5Z" transform="translate(-327.9 -279.4)"/></g><g id="A"><path class="cls-2" d="M506.7,371.6l-8.4.1,15,42,8.4-.1ZM489,319.5c-3.1-8.8-5.3-16.7-7.4-24.5h-.4c-1.2,5-2.4,10.1-3.8,15.2.9,3,1.9,6.1,3.1,9.3l13.8,38.6-32.1.5v.1l40.6-.6Z" transform="translate(-327.9 -279.4)"/><path class="cls-3" d="M492.2,279.4l-8.4.1,48.1,133.9-10.2.2v.1l18.6-.3Zm6,92.2-47.8.8L437.1,415l-9.5.1v.1l18-.3,13.3-42.6,39.4-.6Z" transform="translate(-327.9 -279.4)"/></g><text id="Name" class="cls-4" transform="translate(52.56 172.36)">Blake Allred</text><line id="pathleft" class="cls-5" x1="48.2" y1="167.5" y2="167.5"/><line id="pathright" class="cls-5" x1="161.3" y1="167.5" x2="212.4" y2="167.5"/></svg>